<mxfile host="app.diagrams.net" modified="2023-05-27T18:14:13.212Z" agent="Mozilla/5.0 (Windows NT 10.0; Win64; x64) AppleWebKit/537.36 (KHTML, like Gecko) Chrome/112.0.0.0 Safari/537.36 OPR/98.0.0.0" etag="IOhD0RUuZY_3rJ19siw2" version="21.3.4">
  <diagram name="Seite-1" id="UaTsHYul03XYYzei8K4A">
    <mxGraphModel dx="1393" dy="758" grid="1" gridSize="10" guides="1" tooltips="1" connect="1" arrows="1" fold="1" page="1" pageScale="1" pageWidth="827" pageHeight="1169" math="0" shadow="0">
      <root>
        <mxCell id="0" />
        <mxCell id="1" parent="0" />
        <mxCell id="Y56bbxzKk1IaexRwhABE-9" style="edgeStyle=orthogonalEdgeStyle;rounded=0;orthogonalLoop=1;jettySize=auto;html=1;exitX=0.25;exitY=0;exitDx=0;exitDy=0;entryX=0.5;entryY=1;entryDx=0;entryDy=0;endArrow=block;endFill=0;endSize=12;" edge="1" parent="1" source="-2WXY3S_dPwHR-F8fDUK-1" target="Y56bbxzKk1IaexRwhABE-5">
          <mxGeometry relative="1" as="geometry" />
        </mxCell>
        <mxCell id="-2WXY3S_dPwHR-F8fDUK-1" value="InventoryUI" style="rounded=0;whiteSpace=wrap;html=1;" parent="1" vertex="1">
          <mxGeometry x="50" y="380" width="240" height="40" as="geometry" />
        </mxCell>
        <mxCell id="Y56bbxzKk1IaexRwhABE-10" style="edgeStyle=orthogonalEdgeStyle;rounded=0;orthogonalLoop=1;jettySize=auto;html=1;exitX=1;exitY=0.25;exitDx=0;exitDy=0;entryX=0.5;entryY=1;entryDx=0;entryDy=0;endSize=12;endArrow=block;endFill=0;" edge="1" parent="1" source="-2WXY3S_dPwHR-F8fDUK-2" target="Y56bbxzKk1IaexRwhABE-3">
          <mxGeometry relative="1" as="geometry" />
        </mxCell>
        <mxCell id="-2WXY3S_dPwHR-F8fDUK-2" value="InventorySlot" style="rounded=0;whiteSpace=wrap;html=1;" parent="1" vertex="1">
          <mxGeometry x="440" y="430" width="240" height="40" as="geometry" />
        </mxCell>
        <mxCell id="-2WXY3S_dPwHR-F8fDUK-3" value="- inventorySlots: ArrayList&amp;lt;InventorySlot&amp;gt;&lt;br&gt;- dragAndDrop: DragAndDrop" style="rounded=0;whiteSpace=wrap;html=1;align=left;" parent="1" vertex="1">
          <mxGeometry x="50" y="420" width="240" height="60" as="geometry" />
        </mxCell>
        <mxCell id="-2WXY3S_dPwHR-F8fDUK-4" value="- imagePosition: Point&lt;br&gt;- inventoryItem: InventoryItem&lt;br&gt;- target: DragAndDrop.Target" style="rounded=0;whiteSpace=wrap;html=1;align=left;" parent="1" vertex="1">
          <mxGeometry x="440" y="470" width="240" height="45" as="geometry" />
        </mxCell>
        <mxCell id="Y56bbxzKk1IaexRwhABE-11" style="edgeStyle=orthogonalEdgeStyle;rounded=0;orthogonalLoop=1;jettySize=auto;html=1;exitX=1;exitY=0.25;exitDx=0;exitDy=0;entryX=0.5;entryY=1;entryDx=0;entryDy=0;endSize=12;endArrow=block;endFill=0;" edge="1" parent="1" source="Y56bbxzKk1IaexRwhABE-1" target="Y56bbxzKk1IaexRwhABE-3">
          <mxGeometry relative="1" as="geometry" />
        </mxCell>
        <mxCell id="Y56bbxzKk1IaexRwhABE-16" style="edgeStyle=orthogonalEdgeStyle;rounded=0;orthogonalLoop=1;jettySize=auto;html=1;exitX=0.5;exitY=1;exitDx=0;exitDy=0;endArrow=diamondThin;endFill=1;endSize=12;" edge="1" parent="1" source="Y56bbxzKk1IaexRwhABE-15" target="-2WXY3S_dPwHR-F8fDUK-2">
          <mxGeometry relative="1" as="geometry" />
        </mxCell>
        <mxCell id="Y56bbxzKk1IaexRwhABE-1" value="InventoryItem" style="rounded=0;whiteSpace=wrap;html=1;" vertex="1" parent="1">
          <mxGeometry x="440" y="190" width="240" height="40" as="geometry" />
        </mxCell>
        <mxCell id="Y56bbxzKk1IaexRwhABE-2" value="+ InventorySlot(imagePosition: Point)&lt;br&gt;+ setInventoryItem(item: InventoryItem): void&lt;br&gt;+ getItem(): ItemData&lt;br&gt;+ getTarget(): DragAndDrop.Target" style="rounded=0;whiteSpace=wrap;html=1;align=left;" vertex="1" parent="1">
          <mxGeometry x="440" y="515" width="240" height="70" as="geometry" />
        </mxCell>
        <mxCell id="Y56bbxzKk1IaexRwhABE-3" value="ScreenImage" style="rounded=0;whiteSpace=wrap;html=1;" vertex="1" parent="1">
          <mxGeometry x="690" y="100" width="120" height="60" as="geometry" />
        </mxCell>
        <mxCell id="Y56bbxzKk1IaexRwhABE-5" value="ScreenController" style="rounded=0;whiteSpace=wrap;html=1;" vertex="1" parent="1">
          <mxGeometry x="50" y="210" width="120" height="60" as="geometry" />
        </mxCell>
        <mxCell id="Y56bbxzKk1IaexRwhABE-13" style="edgeStyle=orthogonalEdgeStyle;rounded=0;orthogonalLoop=1;jettySize=auto;html=1;exitX=0.5;exitY=0;exitDx=0;exitDy=0;entryX=0.5;entryY=1;entryDx=0;entryDy=0;endArrow=block;endFill=0;endSize=12;" edge="1" parent="1" source="Y56bbxzKk1IaexRwhABE-7" target="Y56bbxzKk1IaexRwhABE-12">
          <mxGeometry relative="1" as="geometry" />
        </mxCell>
        <mxCell id="Y56bbxzKk1IaexRwhABE-7" value="T" style="rounded=0;whiteSpace=wrap;html=1;dashed=1;" vertex="1" parent="1">
          <mxGeometry x="270" y="370" width="40" height="30" as="geometry" />
        </mxCell>
        <mxCell id="Y56bbxzKk1IaexRwhABE-8" value="T" style="rounded=0;whiteSpace=wrap;html=1;dashed=1;" vertex="1" parent="1">
          <mxGeometry x="160" y="200" width="30" height="30" as="geometry" />
        </mxCell>
        <mxCell id="Y56bbxzKk1IaexRwhABE-12" value="Actor" style="rounded=0;whiteSpace=wrap;html=1;" vertex="1" parent="1">
          <mxGeometry x="230" y="210" width="120" height="60" as="geometry" />
        </mxCell>
        <mxCell id="Y56bbxzKk1IaexRwhABE-14" value="- item: ItemData&lt;br&gt;- source: DragAndDrop.Source" style="rounded=0;whiteSpace=wrap;html=1;align=left;" vertex="1" parent="1">
          <mxGeometry x="440" y="230" width="240" height="40" as="geometry" />
        </mxCell>
        <mxCell id="Y56bbxzKk1IaexRwhABE-15" value="+ InventoryItem(texturePath: String, position: Point, scale: Int, item: ItemData)&lt;br&gt;+ setItem(item: Itemdata): void&lt;br&gt;+ getItem(): ItemData&lt;br&gt;+ getSource(): DragAndDrop.Source" style="rounded=0;whiteSpace=wrap;html=1;align=left;" vertex="1" parent="1">
          <mxGeometry x="440" y="270" width="240" height="90" as="geometry" />
        </mxCell>
        <mxCell id="Y56bbxzKk1IaexRwhABE-17" value="+ InventoryUI(batch: SpriteBatch)&lt;br&gt;+ setupInventorySlots(): void&lt;br&gt;+ updateInventory(): void&lt;br&gt;+ openInventory(): void&lt;br&gt;+ closeInventory(): void" style="rounded=0;whiteSpace=wrap;html=1;align=left;" vertex="1" parent="1">
          <mxGeometry x="50" y="480" width="240" height="80" as="geometry" />
        </mxCell>
        <mxCell id="Y56bbxzKk1IaexRwhABE-18" style="edgeStyle=orthogonalEdgeStyle;rounded=0;orthogonalLoop=1;jettySize=auto;html=1;endArrow=diamondThin;endFill=1;endSize=12;" edge="1" parent="1" source="-2WXY3S_dPwHR-F8fDUK-2" target="-2WXY3S_dPwHR-F8fDUK-3">
          <mxGeometry relative="1" as="geometry">
            <mxPoint x="570" y="330" as="sourcePoint" />
            <mxPoint x="570" y="420" as="targetPoint" />
          </mxGeometry>
        </mxCell>
      </root>
    </mxGraphModel>
  </diagram>
</mxfile>
